<svg width="331" height="213" viewBox="0 0 331 213" fill="none" xmlns="http://www.w3.org/2000/svg">
<path d="M297.849 108.072C268.394 96.7973 204.135 90.0806 204.135 90.0806C198.596 92.8499 189.704 90.2784 189.704 90.2784C162.218 64.7707 118.53 48.9552 118.53 48.9552L121.892 46.7794C108.055 39.263 67.9186 37.285 31.5404 37.6806C9.7995 37.9128 -28.1267 40.6304 -55.4921 42.7718C-55.4921 42.7718 -57.5819 41.4388 -60.6263 41.4388C-63.6707 41.4388 -89.918 0.657361 -89.918 0.657361C-89.918 0.657361 -91.767 0.0725686 -90.9586 1.47438C-90.1502 2.88478 -62.8021 39.8392 -65.5197 43.563C-65.5627 43.563 -65.5971 43.563 -65.6401 43.5716L-65.9153 43.5974C-78.8498 44.638 -87.682 45.4034 -88.2238 45.4034C-89.9094 45.4034 -103.472 45.4034 -104.521 46.0312C-105.57 46.659 -104.727 50.0302 -104.727 50.0302L-102.835 52.1372H-90.95L-95.4737 91.8867L-116.716 90.9407C-116.716 90.9407 -126.597 99.0419 -131.542 102.086C-136.487 105.139 -145.388 115.907 -145.388 115.907L-143.849 122.907C-145.423 123.432 -146.928 131.086 -146.928 131.086L-117.524 144.846C-98.3461 119.338 -80.157 125.272 -80.157 125.272C-29.9413 126.063 -24.6007 181.62 -24.6007 181.62L192.095 182.609C193.677 153.738 207.91 132.195 233.814 123.887C259.717 115.58 282.645 139.703 282.645 139.703L325.155 138.714V133.373C325.155 133.373 318.627 115.382 297.867 108.063L297.849 108.072Z" fill="#393534"/>
<path d="M196.221 188.499C196.221 188.499 279.409 178.24 288.129 183.881L293.59 171.437L289.437 145.585L268.667 126.355L231.61 122.09L198.87 141.182L190.089 180.923L196.221 188.499Z" fill="#1E1E1E"/>
<path d="M121.882 46.7796C121.882 46.7796 167.531 62.5951 204.133 90.0808L202.722 92.1535H188.575C188.575 92.1535 138.592 56.0074 117.315 50.426L118.519 48.9468L121.882 46.771V46.7796Z" fill="#E4EBE2"/>
<path d="M326.96 165.323L329.893 168.015L329.076 171.765C329.076 171.765 329.54 176.916 328.431 177.389C327.321 177.854 324.509 182.541 324.509 182.541L287.838 187.107C287.838 187.107 292.637 147.392 272.84 135.679C253.043 123.966 227.973 120.448 210.515 141.183C193.057 161.918 196.222 188.156 196.222 188.156L-31.7479 187.004C-31.7479 187.004 -29.7699 151.417 -47.959 140.142C-66.1481 128.876 -86.7108 122.744 -108.856 140.538C-131.001 158.331 -123.682 180.081 -123.682 180.081C-123.682 180.081 -141.674 179.488 -149.784 167.232C-149.784 167.232 -152.553 162.881 -151.762 151.417C-151.762 151.417 -153.12 150.987 -152.991 149.43C-152.862 147.882 -150.437 132.454 -150.437 132.454C-150.437 132.454 -148.339 130.863 -146.963 130.734C-145.578 130.605 -126.856 133.219 -113.414 131.439C-113.414 131.439 -97.6931 115.718 -75.1524 117.696C-52.6116 119.674 -39.961 133.314 -32.0489 143.006C-24.1369 152.69 -21.2731 175.231 -21.2731 175.231L189.196 178.593C189.196 178.593 186.728 148.545 209.561 127.982C232.394 107.419 263.242 117.309 272.135 122.942C281.027 128.575 285.379 133.52 285.379 133.52C285.379 133.52 319.487 136.092 322.153 136.092C324.819 136.092 325.12 133.03 325.12 133.03C325.12 133.03 328.482 133.624 328.181 140.547C328.181 140.547 329.6 140.349 330.271 141.931C330.95 143.514 330.847 150.729 330.847 150.729L328.671 152.905C328.671 152.905 329.17 163.689 326.943 165.315L326.96 165.323Z" fill="#393534"/>
<path d="M-82.9509 89.0918C-84.0775 87.6556 -50.1331 46.384 19.8626 44.9994L21.8407 95.0172C21.8407 95.0172 -79.3905 93.6326 -82.9509 89.0832V89.0918Z" fill="#EDF1E9"/>
<path d="M31.1286 95.017L24.4033 44.9991C24.4033 44.9991 89.2563 42.2299 117.129 52.7134C145.002 63.1882 157.661 74.8585 157.661 74.8585L158.65 83.3725C158.65 83.3725 157.05 83.0371 156.242 84.6883C155.434 86.3395 154.72 94.4322 155.184 95.576C155.649 96.7198 160.499 99.3514 160.499 99.3514L160.826 102.146L31.1286 95.0256V95.017Z" fill="#E4EBE2"/>
<path d="M29.9315 110.394C29.9315 110.394 27.8761 110.91 27.9277 112.699C27.9793 114.496 29.6219 114.952 29.6219 114.952L54.4589 115.313C54.4589 115.313 57.0733 114.952 57.0217 113.671C56.9701 112.389 53.9944 111.719 53.9944 111.719L29.9315 110.385V110.394Z" fill="#E4EBE2"/>
<path d="M295.106 113.593C295.106 113.593 309.081 115.7 311.489 117.205C313.897 118.71 322.514 130.578 322.514 130.578L279.927 126.726C279.927 126.726 292.337 114.316 295.106 113.593Z" fill="#94D93B"/>
<path d="M280.95 173.432C280.95 195.027 263.44 212.536 241.846 212.536C220.251 212.536 202.741 195.027 202.741 173.432C202.741 151.837 220.251 134.328 241.846 134.328C263.44 134.328 280.95 151.837 280.95 173.432Z" fill="#292928"/>
<path d="M280.45 173.432C280.45 194.751 263.164 212.036 241.846 212.036C220.527 212.036 203.241 194.751 203.241 173.432C203.241 152.113 220.527 134.828 241.846 134.828C263.164 134.828 280.45 152.113 280.45 173.432Z" stroke="#EAEAEA" stroke-opacity="0.31"/>
<path d="M269.693 173.432C269.693 188.809 257.223 201.279 241.846 201.279C226.469 201.279 213.999 188.809 213.999 173.432C213.999 158.055 226.469 145.585 241.846 145.585C257.223 145.585 269.693 158.055 269.693 173.432Z" fill="#393534"/>
<path d="M270.742 170.259H249.491L264.524 155.235L260.043 150.754L245.01 165.778V144.527H238.672V165.778L223.648 150.754L219.167 155.235L234.2 170.259H212.949V176.597H234.2L219.167 191.621L223.648 196.102L238.672 181.078V202.328H245.01V181.078L260.043 196.102L264.524 191.621L249.491 176.597H270.742V170.259Z" fill="#95D93B"/>
<path d="M-27.6205 139.264C-28.4634 136.95 184.25 143.753 184.25 143.753C184.25 143.753 184.629 151.682 178.643 152.207C172.657 152.731 -8.79504 147.305 -8.79504 147.305C-8.79504 147.305 -24.3611 148.242 -27.6119 139.264H-27.6205Z" fill="#95D93B"/>
</svg>
