<svg width="101" height="44" viewBox="0 0 101 44" fill="none" xmlns="http://www.w3.org/2000/svg">
<path d="M93.5728 22.3187C87.4595 19.9786 74.1227 18.5846 74.1227 18.5846C72.9732 19.1594 71.1276 18.6257 71.1276 18.6257C65.423 13.3316 56.3556 10.0492 56.3556 10.0492L57.0535 9.5976C54.1816 8.03758 45.8514 7.62706 38.3012 7.70916C33.789 7.75735 25.9175 8.32138 20.2379 8.76583C20.2379 8.76583 19.8042 8.48917 19.1723 8.48917C18.5405 8.48917 13.0929 0.0251099 13.0929 0.0251099C13.0929 0.0251099 12.7092 -0.096262 12.877 0.194679C13.0447 0.487404 18.7208 8.15717 18.1567 8.93004C18.1478 8.93004 18.1407 8.93004 18.1317 8.93182L18.0746 8.93718C15.3901 9.15315 13.557 9.31201 13.4446 9.31201C13.0947 9.31201 10.2799 9.31201 10.0621 9.44231C9.84439 9.57261 10.0193 10.2723 10.0193 10.2723L10.412 10.7096H12.8787L11.9399 18.9595L7.53114 18.7631C7.53114 18.7631 5.48027 20.4445 4.45395 21.0764C3.42763 21.71 1.58024 23.9447 1.58024 23.9447L1.89974 25.3976C1.5731 25.5065 1.26074 27.0951 1.26074 27.0951L7.36336 29.951C11.3437 24.6569 15.1188 25.8885 15.1188 25.8885C25.5409 26.0527 26.6493 37.5832 26.6493 37.5832L71.6238 37.7885C71.9522 31.7966 74.9062 27.3253 80.2824 25.6011C85.6585 23.8769 90.4171 28.8836 90.4171 28.8836L99.2399 28.6783V27.5699C99.2399 27.5699 97.8852 23.8358 93.5764 22.3169L93.5728 22.3187Z" fill="#94D93B"/>
<path d="M72.4797 39.0112C72.4797 39.0112 89.7451 36.8818 91.555 38.0527L92.6885 35.4699L91.8263 30.1045L87.5158 26.1134L79.8246 25.2281L73.0294 29.1906L71.207 37.4387L72.4797 39.0112Z" fill="black"/>
<path d="M25.167 38.7738L6.08452 37.3369L4.6084 34.9166L6.39331 29.4994L11.8766 26.606L18.2951 26.3436L23.1536 29.4422L26.022 34.7523L25.167 38.7738Z" fill="black"/>
<path d="M57.0513 9.59761C57.0513 9.59761 66.5256 12.8801 74.1222 18.5846L73.8295 19.0148H70.8933C70.8933 19.0148 60.5194 11.5128 56.1035 10.3544L56.3534 10.0474L57.0513 9.59583V9.59761Z" fill="#E4EBE2"/>
<path d="M99.6142 34.2705L100.223 34.8292L100.053 35.6074C100.053 35.6074 100.15 36.6765 99.9194 36.7747C99.6891 36.8711 99.1055 37.8439 99.1055 37.8439L91.4946 38.7917C91.4946 38.7917 92.4906 30.5489 88.3817 28.1179C84.2729 25.6868 79.0698 24.9568 75.4465 29.2602C71.8231 33.5637 72.4799 39.0094 72.4799 39.0094L25.1655 38.7702C25.1655 38.7702 25.576 31.3843 21.8009 29.0443C18.0258 26.706 13.7581 25.4334 9.16196 29.1264C4.56581 32.8193 6.08477 37.3334 6.08477 37.3334C6.08477 37.3334 2.35074 37.2102 0.667564 34.6667C0.667564 34.6667 0.0928244 33.7636 0.257036 31.3843C0.257036 31.3843 -0.0249812 31.295 0.00179246 30.972C0.0285661 30.6507 0.531912 27.4485 0.531912 27.4485C0.531912 27.4485 0.967432 27.1183 1.25302 27.0916C1.54039 27.0648 5.42614 27.6074 8.21596 27.2379C8.21596 27.2379 11.4788 23.9751 16.157 24.3856C20.8353 24.7962 23.4609 27.627 25.103 29.6386C26.7451 31.6484 27.3395 36.3267 27.3395 36.3267L71.0217 37.0246C71.0217 37.0246 70.5094 30.7881 75.2483 26.5204C79.9873 22.2527 86.3898 24.3053 88.2354 25.4744C90.081 26.6435 90.9841 27.6699 90.9841 27.6699C90.9841 27.6699 98.0631 28.2036 98.6164 28.2036C99.1697 28.2036 99.2322 27.5681 99.2322 27.5681C99.2322 27.5681 99.9301 27.6913 99.8676 29.1281C99.8676 29.1281 100.162 29.0871 100.301 29.4155C100.442 29.7439 100.421 31.2415 100.421 31.2415L99.9694 31.6931C99.9694 31.6931 100.073 33.9313 99.6106 34.2687L99.6142 34.2705Z" fill="#95D93B"/>
<path d="M7.52539 18.7631L10.4062 10.7096H12.873L11.9341 18.9595L7.52539 18.7631Z" fill="#D4D8CD"/>
<path d="M14.5379 18.3793C14.304 18.0813 21.3491 9.51546 35.8765 9.22809L36.287 19.6091C36.287 19.6091 15.2768 19.3218 14.5379 18.3775V18.3793Z" fill="#EDF1E9"/>
<path d="M38.2151 19.6092L36.8193 9.22816C36.8193 9.22816 50.2794 8.65342 56.0643 10.8292C61.8492 13.0033 64.4766 15.4254 64.4766 15.4254L64.6818 17.1924C64.6818 17.1924 64.3498 17.1228 64.182 17.4655C64.0143 17.8082 63.8661 19.4878 63.9625 19.7252C64.0589 19.9626 65.0656 20.5088 65.0656 20.5088L65.1334 21.0889L38.2151 19.611V19.6092Z" fill="#E4EBE2"/>
<path d="M37.9669 22.8006C37.9669 22.8006 37.5403 22.9077 37.551 23.279C37.5617 23.652 37.9026 23.7466 37.9026 23.7466L43.0574 23.8216C43.0574 23.8216 43.6 23.7466 43.5893 23.4807C43.5786 23.2147 42.961 23.0755 42.961 23.0755L37.9669 22.7988V22.8006Z" fill="#E4EBE2"/>
<path d="M11.8766 19.8163L11.2448 23.9465C11.2448 23.9465 3.60535 23.8734 2.33984 25.0514V24.1197C2.33984 24.1197 5.18499 20.748 9.25995 19.7466L11.8766 19.8163Z" fill="#FF9115"/>
<path d="M93.0029 23.4646C93.0029 23.4646 95.9034 23.9019 96.4032 24.2143C96.9029 24.5266 98.6914 26.9898 98.6914 26.9898L89.8525 26.1902C89.8525 26.1902 92.4282 23.6145 93.0029 23.4646Z" fill="#FF9B06"/>
<path d="M24.025 35.884C24.025 40.3659 20.3909 44 15.909 44C11.427 44 7.79297 40.3659 7.79297 35.884C7.79297 31.4021 11.427 27.768 15.909 27.768C20.3909 27.768 24.025 31.4021 24.025 35.884Z" fill="#393534"/>
<path d="M21.689 35.884C21.689 39.0755 19.1008 41.6636 15.9094 41.6636C12.718 41.6636 10.1299 39.0755 10.1299 35.884C10.1299 32.6926 12.718 30.1045 15.9094 30.1045C19.1008 30.1045 21.689 32.6926 21.689 35.884Z" fill="#94D93B"/>
<path d="M21.9075 35.2254H17.4952L20.6152 32.1072L19.6853 31.1772L16.5671 34.2955V29.8849H15.2516V34.2955L12.1316 31.1772L11.2034 32.1072L14.3217 35.2254H9.91113V36.5409H14.3217L11.2034 39.6591L12.1316 40.5891L15.2516 37.4708V41.8813H16.5671V37.4708L19.6853 40.5891L20.6152 39.6591L17.4952 36.5409H21.9075V35.2254Z" fill="#393534"/>
<path d="M90.065 35.884C90.065 40.3659 86.4309 44 81.949 44C77.4671 44 73.833 40.3659 73.833 35.884C73.833 31.4021 77.4671 27.768 81.949 27.768C86.4309 27.768 90.065 31.4021 90.065 35.884Z" fill="#393534"/>
<path d="M87.728 35.884C87.728 39.0755 85.1399 41.6636 81.9485 41.6636C78.7571 41.6636 76.1689 39.0755 76.1689 35.884C76.1689 32.6926 78.7571 30.1045 81.9485 30.1045C85.1399 30.1045 87.728 32.6926 87.728 35.884Z" fill="#94D93B"/>
<path d="M87.9458 35.2254H83.5353L86.6553 32.1072L85.7254 31.1772L82.6053 34.2955V29.8849H81.2898V34.2955L78.1716 31.1772L77.2417 32.1072L80.3617 35.2254H75.9512V36.5409H80.3617L77.2417 39.6591L78.1716 40.5891L81.2898 37.4708V41.8813H82.6053V37.4708L85.7254 40.5891L86.6553 39.6591L83.5353 36.5409H87.9458V35.2254Z" fill="#393534"/>
<path d="M26.022 28.7925C25.8471 28.3124 69.9951 29.7243 69.9951 29.7243C69.9951 29.7243 70.0736 31.3699 68.8313 31.4788C67.589 31.5877 29.9292 30.4614 29.9292 30.4614C29.9292 30.4614 26.6985 30.656 26.0238 28.7925H26.022Z" fill="#95D93B"/>
</svg>

