<svg width="331" height="213" viewBox="0 0 331 213" fill="none" xmlns="http://www.w3.org/2000/svg">
<path d="M33.0868 107.808C62.6165 96.5044 127.039 89.7708 127.039 89.7708C132.591 92.547 141.506 89.9691 141.506 89.9691C169.061 64.3968 212.86 48.5413 212.86 48.5413L209.489 46.36C223.361 38.8246 263.599 36.8416 300.07 37.2382C321.865 37.471 359.888 40.1954 387.322 42.3423C387.322 42.3423 389.417 41.0059 392.469 41.0059C395.522 41.0059 421.835 0.12129 421.835 0.12129C421.835 0.12129 423.689 -0.464982 422.879 0.940372C422.068 2.35435 394.651 39.4022 397.375 43.1355C397.418 43.1355 397.453 43.1355 397.496 43.1441L397.772 43.1699C410.739 44.2132 419.594 44.9805 420.137 44.9805C421.827 44.9805 435.423 44.9805 436.475 45.6099C437.527 46.2393 436.682 49.6191 436.682 49.6191L434.785 51.7314H422.87L427.405 91.5814L448.701 90.633C448.701 90.633 458.607 98.7547 463.565 101.807C468.522 104.868 477.446 115.662 477.446 115.662L475.903 122.68C477.48 123.206 478.989 130.88 478.989 130.88L449.511 144.674C430.285 119.102 412.05 125.051 412.05 125.051C361.707 125.844 356.353 181.541 356.353 181.541L139.109 182.533C137.523 153.589 123.254 131.992 97.2847 123.663C71.3159 115.334 48.3301 139.519 48.3301 139.519L5.71259 138.527V133.173C5.71259 133.173 12.2565 115.136 33.0695 107.799L33.0868 107.808Z" fill="#393534"/>
<path d="M134.974 188.439C134.974 188.439 51.5751 178.153 42.8326 183.809L37.3577 171.333L41.522 145.416L62.3437 126.137L99.495 121.861L132.318 141.001L141.121 180.843L134.974 188.439Z" fill="#1E1E1E"/>
<path d="M209.5 46.3602C209.5 46.3602 163.735 62.2157 127.041 89.771L128.455 91.8488H142.638C142.638 91.8488 192.748 55.6114 214.078 50.0158L212.871 48.5329L209.5 46.3516V46.3602Z" fill="#E4EBE2"/>
<path d="M3.90286 165.204L0.96286 167.902L1.78195 171.662C1.78195 171.662 1.31638 176.826 2.42859 177.3C3.5408 177.766 6.36011 182.465 6.36011 182.465L43.1234 187.043C43.1234 187.043 38.3125 147.227 58.1599 135.484C78.0073 123.742 103.14 120.215 120.642 141.002C138.144 161.79 134.972 188.095 134.972 188.095L363.518 186.939C363.518 186.939 361.535 151.262 379.77 139.959C398.006 128.665 418.62 122.517 440.821 140.356C463.023 158.194 455.685 179.999 455.685 179.999C455.685 179.999 473.722 179.404 481.853 167.118C481.853 167.118 484.629 162.755 483.836 151.262C483.836 151.262 485.198 150.831 485.068 149.271C484.939 147.719 482.508 132.251 482.508 132.251C482.508 132.251 480.404 130.656 479.025 130.527C477.636 130.398 458.867 133.019 445.391 131.234C445.391 131.234 429.63 115.473 407.033 117.456C384.435 119.439 371.752 133.113 363.82 142.83C355.888 152.538 353.017 175.136 353.017 175.136L142.016 178.507C142.016 178.507 144.49 148.383 121.599 127.768C98.7083 107.153 67.7818 117.068 58.8669 122.716C49.9519 128.363 45.5894 133.32 45.5894 133.32C45.5894 133.32 11.3952 135.898 8.72247 135.898C6.04971 135.898 5.74796 132.829 5.74796 132.829C5.74796 132.829 2.37683 133.424 2.67859 140.364C2.67859 140.364 1.25601 140.166 0.583496 141.753C-0.0976257 143.339 0.00585938 150.573 0.00585938 150.573L2.18713 152.754C2.18713 152.754 1.68707 163.566 3.92014 165.195L3.90286 165.204Z" fill="#393534"/>
<path d="M414.851 88.7794C415.98 87.3396 381.95 45.9635 311.777 44.5754L309.794 94.7198C309.794 94.7198 411.281 93.3317 414.851 88.7708V88.7794Z" fill="#EDF1E9"/>
<path d="M300.482 94.7198L307.225 44.5754C307.225 44.5754 242.208 41.7992 214.264 52.3092C186.321 62.8105 173.63 74.5103 173.63 74.5103L172.638 83.0459C172.638 83.0459 174.242 82.7096 175.052 84.365C175.863 86.0204 176.578 94.1335 176.113 95.2802C175.647 96.4269 170.785 99.0652 170.785 99.0652L170.457 101.867L300.482 94.7284V94.7198Z" fill="#E4EBE2"/>
<path d="M301.683 110.136C301.683 110.136 303.743 110.653 303.691 112.446C303.64 114.248 301.993 114.705 301.993 114.705L277.093 115.067C277.093 115.067 274.472 114.705 274.524 113.42C274.576 112.136 277.559 111.463 277.559 111.463L301.683 110.127V110.136Z" fill="#E4EBE2"/>
<path d="M35.8382 113.343C35.8382 113.343 21.8277 115.455 19.4136 116.964C16.9995 118.473 8.36053 130.371 8.36053 130.371L51.0557 126.509C51.0557 126.509 38.6144 114.067 35.8382 113.343Z" fill="#94D93B"/>
<path d="M50.0289 173.333C50.0289 194.982 67.5829 212.536 89.2322 212.536C110.882 212.536 128.436 194.982 128.436 173.333C128.436 151.684 110.882 134.13 89.2322 134.13C67.5829 134.13 50.0289 151.684 50.0289 173.333Z" fill="#292928"/>
<path d="M50.5289 173.333C50.5289 194.706 67.859 212.036 89.2322 212.036C110.605 212.036 127.936 194.706 127.936 173.333C127.936 151.96 110.605 134.63 89.2322 134.63C67.859 134.63 50.5289 151.96 50.5289 173.333Z" stroke="#EAEAEA" stroke-opacity="0.31"/>
<path d="M61.3146 173.333C61.3146 188.749 73.8162 201.25 89.232 201.25C104.648 201.25 117.149 188.749 117.149 173.333C117.149 157.917 104.648 145.415 89.232 145.415C73.8162 145.415 61.3146 157.917 61.3146 173.333Z" fill="#393534"/>
<path d="M60.2626 170.152H81.5671L66.4963 155.089L70.9882 150.597L86.0591 165.66V144.355H92.4134V165.66L107.476 150.597L111.968 155.089L96.8967 170.152H118.201V176.506H96.8967L111.968 191.568L107.476 196.06L92.4134 180.998V202.302H86.0591V180.998L70.9882 196.06L66.4963 191.568L81.5671 176.506H60.2626V170.152Z" fill="#95D93B"/>
<path d="M359.38 139.078C360.225 136.759 146.974 143.579 146.974 143.579C146.974 143.579 146.594 151.528 152.595 152.054C158.596 152.58 340.507 147.14 340.507 147.14C340.507 147.14 356.113 148.08 359.372 139.078H359.38Z" fill="#95D93B"/>
</svg>
