<svg xmlns="http://www.w3.org/2000/svg" width="19" height="11" viewBox="0 0 19 11" fill="none">
<path fill-rule="evenodd" clip-rule="evenodd" d="M0.214666 0.230774C0.28254 0.157622 0.363172 0.0995832 0.451943 0.0599831C0.540714 0.0203831 0.63588 0 0.73199 0C0.8281 0 0.923266 0.0203831 1.01204 0.0599831C1.10081 0.0995832 1.18144 0.157622 1.24931 0.230774L9.50019 9.10237L17.7511 0.230774C17.819 0.15774 17.8997 0.0998062 17.9884 0.0602805C18.0772 0.0207549 18.1723 0.000411269 18.2684 0.000411269C18.3645 0.000411269 18.4596 0.0207549 18.5484 0.0602805C18.6371 0.0998062 18.7178 0.15774 18.7857 0.230774C18.8537 0.303808 18.9075 0.390511 18.9443 0.485934C18.9811 0.581358 19 0.683632 19 0.786918C19 0.890203 18.9811 0.992477 18.9443 1.0879C18.9075 1.18332 18.8537 1.27003 18.7857 1.34306L10.0175 10.7692C9.94964 10.8424 9.86901 10.9004 9.78024 10.94C9.69147 10.9796 9.5963 11 9.50019 11C9.40408 11 9.30892 10.9796 9.22015 10.94C9.13137 10.9004 9.05074 10.8424 8.98287 10.7692L0.214666 1.34306C0.14662 1.27009 0.0926328 1.18341 0.0557969 1.08798C0.018961 0.992547 0 0.89024 0 0.786918C0 0.683595 0.018961 0.581288 0.0557969 0.485856C0.0926328 0.390424 0.14662 0.303741 0.214666 0.230774Z" fill="black" fill-opacity="0.5"/>
</svg>