<svg width="30" height="29" viewBox="0 0 30 29" fill="none" xmlns="http://www.w3.org/2000/svg">
<path fill-rule="evenodd" clip-rule="evenodd" d="M0.5 27.3889V14.5L3.0545 5.55923C3.44973 4.17593 4.71409 3.22222 6.15275 3.22222H10.1667V0H19.8333V3.22222H23.8473C25.2859 3.22222 26.5503 4.17593 26.9455 5.55923L29.5 14.5V27.3889C29.5 28.275 28.775 29 27.8889 29H26.2778C25.3917 29 24.6667 28.275 24.6667 27.3889V25.7778H5.33333V27.3889C5.33333 28.275 4.60833 29 3.72222 29H2.11111C1.225 29 0.5 28.275 0.5 27.3889ZM6.13889 20.9444C4.80167 20.9444 3.72222 19.865 3.72222 18.5278C3.72222 17.1906 4.80167 16.1111 6.13889 16.1111C7.47611 16.1111 8.55556 17.1906 8.55556 18.5278C8.55556 19.865 7.47611 20.9444 6.13889 20.9444ZM23.8611 20.9444C22.5239 20.9444 21.4444 19.865 21.4444 18.5278C21.4444 17.1906 22.5239 16.1111 23.8611 16.1111C25.1983 16.1111 26.2778 17.1906 26.2778 18.5278C26.2778 19.865 25.1983 20.9444 23.8611 20.9444ZM25.2282 11.2778H4.7718L6.15275 6.44444H23.8473L25.2282 11.2778Z" fill="#2A2A2A"/>
</svg>
