<svg xmlns="http://www.w3.org/2000/svg" width="34" height="39" viewBox="0 0 34 39" fill="none">
<path fill-rule="evenodd" clip-rule="evenodd" d="M7.23103 3.83016C7.23103 3.36895 11.9972 0.13623 16.7297 0.13623C21.4622 0.13623 26.2284 3.36895 26.2284 3.83016C26.2284 5.4766 26.0532 6.4518 25.9054 6.98267C25.8073 7.33095 25.4811 7.52409 25.1191 7.52409H8.34026C7.97826 7.52409 7.65213 7.33095 7.55398 6.98267C7.40622 6.4518 7.23103 5.4766 7.23103 3.83016ZM15.1466 3.30246C14.8667 3.30246 14.5982 3.41365 14.4003 3.61158C14.2024 3.80951 14.0912 4.07795 14.0912 4.35786C14.0912 4.63778 14.2024 4.90622 14.4003 5.10415C14.5982 5.30208 14.8667 5.41327 15.1466 5.41327H18.3128C18.5927 5.41327 18.8612 5.30208 19.0591 5.10415C19.257 4.90622 19.3682 4.63778 19.3682 4.35786C19.3682 4.07795 19.257 3.80951 19.0591 3.61158C18.8612 3.41365 18.5927 3.30246 18.3128 3.30246H15.1466ZM8.32654 14.0866C4.81203 12.9996 5.69857 11.0576 7.03894 9.63491H26.7139C27.7862 11.0048 28.3614 12.8528 25.1202 13.9589C25.1554 14.272 25.173 14.5897 25.173 14.912C25.1725 16.0552 24.9399 17.1865 24.4891 18.2372C24.0384 19.2879 23.379 20.2361 22.5509 21.0244C21.7227 21.8126 20.7432 22.4244 19.6715 22.8228C18.5999 23.2211 17.4585 23.3977 16.3166 23.3417C15.1746 23.2858 14.056 22.9985 13.0284 22.4973C12.0008 21.9961 11.0857 21.2915 10.3386 20.4261C9.59149 19.5607 9.02792 18.5525 8.68205 17.4628C8.33619 16.3731 8.21524 15.2245 8.32654 14.0866ZM16.4426 14.912C19.231 14.912 21.3925 14.7642 23.0495 14.5067C23.0579 14.6404 23.0622 14.7755 23.0622 14.912C23.0614 15.7571 22.8915 16.5935 22.5625 17.3719C22.2334 18.1503 21.7519 18.855 21.1462 19.4444C20.5406 20.0338 19.8231 20.4961 19.036 20.8039C18.249 21.1117 17.4082 21.2588 16.5634 21.2366C15.7186 21.2144 14.8868 21.0234 14.1169 20.6747C13.3471 20.326 12.6549 19.8267 12.081 19.2063C11.5072 18.5859 11.0633 17.8569 10.7756 17.0623C10.4878 16.2677 10.3621 15.4235 10.4057 14.5795C11.9498 14.7927 13.9286 14.912 16.4426 14.912ZM25.6131 30.3209C24.6586 28.8314 23.3446 27.606 21.7922 26.7576C20.2398 25.9092 18.4988 25.465 16.7297 25.466C14.9598 25.4647 13.2181 25.9089 11.6651 26.7577C10.1121 27.6066 8.79771 28.8327 7.84316 30.323C7.4881 29.778 6.94424 29.3834 6.31599 29.2148L4.27694 28.6692C3.60109 28.488 2.88095 28.5827 2.27491 28.9324C1.66887 29.2822 1.22656 29.8583 1.04528 30.5341L0.226278 33.5927C0.136581 33.9274 0.113695 34.2765 0.158927 34.6201C0.204159 34.9636 0.316624 35.2949 0.489898 35.595C0.663172 35.8951 0.893861 36.1581 1.16879 36.369C1.44372 36.58 1.75751 36.7347 2.09224 36.8243L4.13023 37.371C4.47309 37.4629 4.83095 37.4846 5.1824 37.4349C5.53385 37.3853 5.87166 37.2652 6.17562 37.0819C6.17646 37.3618 6.28846 37.6299 6.48698 37.8272C6.6855 38.0246 6.95428 38.1349 7.23419 38.1341C7.5141 38.1333 7.78222 38.0213 7.97955 37.8227C8.17688 37.6242 8.28727 37.3554 8.28643 37.0755V36.0201C8.28643 35.6177 8.31387 35.2226 8.36875 34.8349L13.8611 36.3072C14.116 36.8529 14.5214 37.3145 15.0295 37.638C15.5376 37.9614 16.1274 38.1332 16.7297 38.1332C17.332 38.1332 17.9218 37.9614 18.4299 37.638C18.938 37.3145 19.3434 36.8529 19.5983 36.3072L25.0907 34.8349C25.1448 35.2226 25.1723 35.6177 25.173 36.0201V37.0755C25.1716 37.3554 25.2814 37.6244 25.4784 37.8234C25.6753 38.0223 25.9432 38.1348 26.2231 38.1362C26.503 38.1376 26.772 38.0278 26.9709 37.8308C27.1699 37.6339 27.2824 37.366 27.2838 37.0861C27.8748 37.4407 28.6052 37.5642 29.3239 37.371L31.3629 36.8254C31.6977 36.7357 32.0115 36.581 32.2864 36.3701C32.5613 36.1592 32.792 35.8961 32.9653 35.5961C33.1386 35.296 33.251 34.9647 33.2963 34.6211C33.3415 34.2776 33.3186 33.9285 33.2289 33.5937L32.4089 30.5352C32.2276 29.8593 31.7853 29.2832 31.1792 28.9335C30.5732 28.5838 29.853 28.4891 29.1772 28.6703L27.1381 29.2159C26.5113 29.3838 25.9684 29.7779 25.6131 30.3209ZM8.92284 32.7969C9.49329 31.4184 10.4184 30.2154 11.6042 29.3101C12.7899 28.4047 14.1942 27.8293 15.6743 27.6423V31.979C15.201 32.1462 14.7743 32.4236 14.4293 32.7882C14.0843 33.1528 13.8309 33.5943 13.6901 34.0761L8.92284 32.7969ZM24.5366 32.7969C23.9661 31.4184 23.041 30.2154 21.8552 29.3101C20.6695 28.4047 19.2652 27.8293 17.7851 27.6423V31.979C18.7392 32.3167 19.4843 33.0977 19.7693 34.0761L24.5366 32.7969ZM16.7297 36.0201C17.0096 36.0201 17.2781 35.9089 17.476 35.711C17.6739 35.5131 17.7851 35.2446 17.7851 34.9647C17.7851 34.6848 17.6739 34.4164 17.476 34.2184C17.2781 34.0205 17.0096 33.9093 16.7297 33.9093C16.4498 33.9093 16.1813 34.0205 15.9834 34.2184C15.7855 34.4164 15.6743 34.6848 15.6743 34.9647C15.6743 35.2446 15.7855 35.5131 15.9834 35.711C16.1813 35.9089 16.4498 36.0201 16.7297 36.0201Z" fill="black"/>
</svg>