<svg width="24" height="29" viewBox="0 0 24 29" fill="none" xmlns="http://www.w3.org/2000/svg">
<path d="M23.8635 5.27273L11.9999 0L0.13623 5.27273V13.1818C0.13623 20.4977 5.19805 27.3391 11.9999 29C15.0317 28.2618 17.7076 26.4955 19.7508 24.1095L15.638 19.9968C14.3709 20.8344 12.853 21.2079 11.3419 21.0542C9.8307 20.9004 8.41921 20.2288 7.34668 19.1532C6.11205 17.9167 5.41859 16.2408 5.41859 14.4934C5.41859 12.7461 6.11205 11.0701 7.34668 9.83364C8.58318 8.599 10.2591 7.90554 12.0065 7.90554C13.7538 7.90554 15.4297 8.599 16.6662 9.83364C17.7392 10.9077 18.409 12.3189 18.5626 13.8293C18.7163 15.3397 18.3445 16.8568 17.5099 18.125L21.3326 21.9477C22.9276 19.3641 23.8635 16.3191 23.8635 13.1818V5.27273Z" fill="#2A2A2A"/>
<path d="M12 18.4545C14.184 18.4545 15.9545 16.684 15.9545 14.5C15.9545 12.3159 14.184 10.5454 12 10.5454C9.81592 10.5454 8.04541 12.3159 8.04541 14.5C8.04541 16.684 9.81592 18.4545 12 18.4545Z" fill="#2A2A2A"/>
</svg>
