<svg xmlns="http://www.w3.org/2000/svg" width="32" height="39" viewBox="0 0 32 39" fill="none">
<path d="M9.87746 33.2657H21.5668V37.1621H9.87746C4.50038 37.1621 0.136368 32.7981 0.136368 27.421V9.88706H4.0328V27.421C4.0328 30.6551 6.64342 33.2657 9.87746 33.2657ZM12.6439 6.7894C14.1635 5.26979 14.1635 2.79555 12.6439 1.27594C11.1243 -0.243672 8.65008 -0.243672 7.13047 1.27594C5.61086 2.79555 5.61086 5.26979 7.13047 6.7894C8.65008 8.32849 11.1048 8.32849 12.6439 6.7894ZM14.748 13.7835C14.748 11.6405 12.9946 9.88706 10.8516 9.88706H9.87746C7.73442 9.88706 5.98102 11.6405 5.98102 13.7835V25.4728C5.98102 28.7069 8.59164 31.3175 11.8257 31.3175H21.7031L28.5219 38.1362L31.3079 35.3503L21.4304 25.4728H14.748V13.7835Z" fill="black"/>
</svg>