<svg width="27" height="21" viewBox="0 0 27 21" fill="none" xmlns="http://www.w3.org/2000/svg">
<path d="M2.424 21C1.733 21 1.1565 20.769 0.6945 20.307C0.2325 19.845 0.001 19.268 0 18.576V2.424C0 1.733 0.2315 1.1565 0.6945 0.6945C1.1575 0.2325 1.7335 0.001 2.4225 0H24.5775C25.2675 0 25.8435 0.2315 26.3055 0.6945C26.7675 1.1575 26.999 1.734 27 2.424V18.5775C27 19.2675 26.7685 19.844 26.3055 20.307C25.8425 20.77 25.2665 21.001 24.5775 21H2.424ZM11.25 14.25H6C5.787 14.25 5.609 14.322 5.466 14.466C5.323 14.61 5.251 14.7885 5.25 15.0015C5.249 15.2145 5.321 15.3925 5.466 15.5355C5.611 15.6785 5.789 15.75 6 15.75H8.25V16.5C8.25 16.713 8.322 16.891 8.466 17.034C8.61 17.177 8.7885 17.249 9.0015 17.25C9.2145 17.251 9.3925 17.179 9.5355 17.034C9.6785 16.889 9.75 16.711 9.75 16.5V15.75H11.595C11.923 15.75 12.1975 15.6395 12.4185 15.4185C12.6395 15.1975 12.75 14.9235 12.75 14.5965V10.9035C12.75 10.5765 12.6395 10.3025 12.4185 10.0815C12.1975 9.8605 11.9235 9.75 11.5965 9.75H6.75V6.75H12C12.213 6.75 12.391 6.678 12.534 6.534C12.677 6.39 12.749 6.2115 12.75 5.9985C12.751 5.7855 12.679 5.6075 12.534 5.4645C12.389 5.3215 12.211 5.25 12 5.25H9.75V4.5C9.75 4.287 9.6775 4.109 9.5325 3.966C9.3865 3.822 9.2065 3.75 8.9925 3.75C8.7895 3.75 8.631 3.83 8.517 3.99C8.402 4.151 8.313 4.321 8.25 4.5V5.25H6.405C6.077 5.25 5.8025 5.3605 5.5815 5.5815C5.3605 5.8025 5.25 6.077 5.25 6.405V10.098C5.25 10.425 5.3605 10.699 5.5815 10.92C5.8025 11.141 6.0765 11.2515 6.4035 11.2515H11.25V14.25ZM19.7055 16.266L21.2865 14.6865C21.3915 14.5805 21.419 14.467 21.369 14.346C21.319 14.225 21.223 14.164 21.081 14.163H17.913C17.781 14.163 17.6885 14.224 17.6355 14.346C17.5825 14.466 17.609 14.5795 17.715 14.6865L19.2945 16.266C19.3505 16.322 19.418 16.35 19.497 16.35C19.576 16.35 19.6455 16.322 19.7055 16.266ZM17.9205 7.212H21.087C21.22 7.212 21.3125 7.1515 21.3645 7.0305C21.4175 6.9095 21.3915 6.796 21.2865 6.69L19.7055 5.1105C19.6495 5.0535 19.582 5.025 19.503 5.025C19.424 5.025 19.355 5.053 19.296 5.109L17.715 6.69C17.609 6.796 17.581 6.9095 17.631 7.0305C17.681 7.1505 17.777 7.2105 17.919 7.2105" fill="#2A2A2A"/>
</svg>
