<svg width="26" height="29" viewBox="0 0 26 29" fill="none" xmlns="http://www.w3.org/2000/svg">
<path d="M14.0356 0C14.8596 0 15.65 0.327359 16.2327 0.910061C16.8154 1.49276 17.1427 2.28308 17.1427 3.10714V12.894C16.4391 13.2275 15.8265 13.7261 15.357 14.3473C14.8875 14.9685 14.5751 15.6939 14.4463 16.4618C14.3174 17.2297 14.376 18.0174 14.6171 18.7578C14.8582 19.4982 15.2746 20.1694 15.8308 20.7143H15.4483C14.9454 20.7137 14.4473 20.8124 13.9825 21.0045C13.5178 21.1967 13.0955 21.4786 12.7398 21.8342C12.3841 22.1897 12.102 22.6119 11.9097 23.0766C11.7174 23.5413 11.6185 24.0394 11.6189 24.5423V24.6845C11.6189 25.7064 11.9144 26.7283 12.5372 27.619H3.67843C2.85437 27.619 2.06405 27.2917 1.48135 26.709C0.898648 26.1263 0.571289 25.336 0.571289 24.5119V3.10714C0.571289 2.28308 0.898648 1.49276 1.48135 0.910061C2.06405 0.327359 2.85437 0 3.67843 0H14.0356ZM10.5832 22.0952H7.13081C6.85612 22.0952 6.59269 22.2044 6.39845 22.3986C6.20422 22.5928 6.0951 22.8563 6.0951 23.131C6.0951 23.4056 6.20422 23.6691 6.39845 23.8633C6.59269 24.0575 6.85612 24.1667 7.13081 24.1667H10.5832C10.8579 24.1667 11.1213 24.0575 11.3156 23.8633C11.5098 23.6691 11.6189 23.4056 11.6189 23.131C11.6189 22.8563 11.5098 22.5928 11.3156 22.3986C11.1213 22.2044 10.8579 22.0952 10.5832 22.0952ZM22.6665 17.2619C22.6665 18.1775 22.3028 19.0557 21.6553 19.7031C21.0079 20.3506 20.1298 20.7143 19.2141 20.7143C18.2985 20.7143 17.4204 20.3506 16.7729 19.7031C16.1255 19.0557 15.7618 18.1775 15.7618 17.2619C15.7618 16.3463 16.1255 15.4681 16.7729 14.8207C17.4204 14.1733 18.2985 13.8095 19.2141 13.8095C20.1298 13.8095 21.0079 14.1733 21.6553 14.8207C22.3028 15.4681 22.6665 16.3463 22.6665 17.2619ZM25.4284 24.6845C25.4284 26.8333 23.6525 29 19.2141 29C14.7758 29 12.9999 26.8416 12.9999 24.6845V24.5423C12.9999 23.189 14.0963 22.0952 15.4483 22.0952H22.98C24.3333 22.0952 25.4284 23.1903 25.4284 24.5423V24.6845Z" fill="#2A2A2A"/>
</svg>
