<svg width="29" height="28" viewBox="0 0 29 28" fill="none" xmlns="http://www.w3.org/2000/svg">
<path fill-rule="evenodd" clip-rule="evenodd" d="M28.4365 12.7045L27.05 1.45L15.8818 0.0833386C15.6635 0.0298108 15.4355 0.000994765 15.201 2.52973e-05L15.2008 0L15.2007 2.42132e-05L15.1887 0C14.3063 0 13.516 0.39412 12.9841 1.01593L1.70468 12.2953C1.08287 12.8272 0.688745 13.6176 0.688745 14.5C0.688745 15.3824 1.08286 16.1728 1.70468 16.7047L11.7974 26.7974C12.3293 27.4178 13.1188 27.8109 14 27.8109C14.8812 27.8109 15.6707 27.4178 16.2026 26.7974L27.4865 15.5135C28.1069 14.9816 28.5 14.1922 28.5 13.3109C28.5 13.2816 28.4996 13.2523 28.4987 13.2232L28.5 13.2199L28.4981 13.2043C28.4919 13.0335 28.471 12.8665 28.4365 12.7045ZM19.0929 7.99289L10.3929 16.6929L11.8071 18.1071L20.5071 9.40711L19.0929 7.99289ZM14 9.425C14 10.6262 13.0262 11.6 11.825 11.6C10.6238 11.6 9.65 10.6262 9.65 9.425C9.65 8.22378 10.6238 7.25 11.825 7.25C13.0262 7.25 14 8.22378 14 9.425ZM19.075 18.85C20.2762 18.85 21.25 17.8762 21.25 16.675C21.25 15.4738 20.2762 14.5 19.075 14.5C17.8738 14.5 16.9 15.4738 16.9 16.675C16.9 17.8762 17.8738 18.85 19.075 18.85Z" fill="#2A2A2A"/>
</svg>
